HIERARCHY
ROOT Hips
{
     OFFSET 1.88212 96.90440 -13.34250
     CHANNELS 6 Xposition Yposition Zposition Zrotation Xrotation Yrotation
     JOINT Spine
     {
          OFFSET 0.00000 11.89050 0.00000
          CHANNELS 3 Zrotation Xrotation Yrotation
          JOINT Spine1
          {
               OFFSET -0.00000 25.65740 0.12766
               CHANNELS 3 Zrotation Xrotation Yrotation
               JOINT HEad
               {
                    OFFSET 0.00000 8.73416 0.01134
                    CHANNELS 3 Zrotation Xrotation Yrotation
                    End Site
                    {
                         OFFSET -0.29000 12.77420 2.51395
                    }
               }
               JOINT LeftShoulder1
               {
                    OFFSET 8.99000 -0.36225 -0.22000
                    CHANNELS 3 Zrotation Xrotation Yrotation
                    JOINT LeftArm
                    {
                         OFFSET 10.28270 -0.00338 0.32212
                         CHANNELS 3 Zrotation Xrotation Yrotation
                         JOINT LeftForeArm
                         {
                              OFFSET 32.76690 0.09914 -1.42434
                              CHANNELS 3 Zrotation Xrotation Yrotation
                              JOINT LeftHand
                              {
                                   OFFSET 27.56430 0.08536 1.02216
                                   CHANNELS 3 Zrotation Xrotation Yrotation
                                   End Site
                                   {
                                        OFFSET 16.74430 -0.60000 1.50291
                                   }
                              }
                         }
                    }
               }
               JOINT RightShoulder
               {
                    OFFSET -8.99000 -0.36225 -0.22000
                    CHANNELS 3 Zrotation Xrotation Yrotation
                    JOINT RightArm
                    {
                         OFFSET -10.28270 -0.00338 0.32212
                         CHANNELS 3 Zrotation Xrotation Yrotation
                         JOINT RightForeArm
                         {
                              OFFSET -32.89710 0.09914 -1.42434
                              CHANNELS 3 Zrotation Xrotation Yrotation
                              JOINT RightHand
                              {
                                   OFFSET -27.49210 0.08536 1.02216
                                   CHANNELS 3 Zrotation Xrotation Yrotation
                                   End Site
                                   {
                                        OFFSET -16.63120 -0.60000 1.50291
                                   }
                              }
                         }
                    }
               }
          }
     }
     JOINT LeftUpLeg
     {
          OFFSET 8.94580 -8.66707 0.10165
          CHANNELS 3 Zrotation Xrotation Yrotation
          JOINT LeftLeg
          {
               OFFSET 0.00000 -44.42270 1.37270
               CHANNELS 3 Zrotation Xrotation Yrotation
               JOINT LeftFoot
               {
                    OFFSET -0.25355 -42.09240 -1.46059
                    CHANNELS 3 Zrotation Xrotation Yrotation
                    JOINT LeftToes
                    {
                         OFFSET -0.04000 -4.41509 8.49910
                         CHANNELS 3 Zrotation Xrotation Yrotation
                         End Site
                         {
                              OFFSET 0.08000 -0.04745 9.77979
                         }
                    }
               }
          }
     }
     JOINT RightUpLeg
     {
          OFFSET -8.94580 -8.66707 0.10165
          CHANNELS 3 Zrotation Xrotation Yrotation
          JOINT RightLeg
          {
               OFFSET 0.00000 -44.42270 1.37270
               CHANNELS 3 Zrotation Xrotation Yrotation
               JOINT RightFoot
               {
                    OFFSET 0.25355 -42.09240 -1.46059
                    CHANNELS 3 Zrotation Xrotation Yrotation
                    JOINT RightToes
                    {
                         OFFSET 0.04000 -4.41509 8.49910
                         CHANNELS 3 Zrotation Xrotation Yrotation
                         End Site
                         {
                              OFFSET -0.08000 -0.13745 9.77979
                         }
                    }
               }
          }
     }
}
MOTION
Frames: 7
Frame Time: 0.01667
42.66709 93.10642 -119.54965 2.95169 1.42402 -21.01509 -11.81396 13.90346 7.07109 -0.01963 0.09095 0.02968 -9.10876 10.50076 4.44375 -4.68432 11.44147 7.44498 -115.25405 -44.51384 -105.24078 -45.25126 54.43374 -85.85316 6.15170 7.37317 1.48726 14.48275 14.30554 10.71604 89.53302 -32.29322 78.02993 45.05979 58.12392 102.50563 -5.36240 6.96917 -1.71949 6.31646 -22.09790 -7.20197 0.82095 24.62555 -6.50264 -0.42919 -0.00214 -0.00084 -14.78656 -14.85341 0.39435 -7.70466 9.14738 -2.34181 -1.19759 25.98396 -9.81570 13.51851 -0.04939 0.04751 -4.17342 -26.06715 -13.62238 
42.46453 92.17843 -120.47189 3.04048 0.95211 -20.77069 -14.24729 18.51130 9.31559 -0.01686 0.08131 0.02253 -7.34387 6.27395 2.35583 -3.58246 8.68939 6.03062 -115.53577 -43.44580 -105.45040 -45.73387 55.21232 -85.69881 6.21621 7.30988 1.74644 15.22605 11.26806 9.75242 90.02380 -32.63519 78.01099 45.60144 59.15045 103.11876 -5.63618 6.83013 -2.03996 6.05637 -23.79035 -5.80678 1.96648 26.79827 -8.53907 0.11611 -0.00344 0.00091 -16.65533 -16.18873 -0.04492 -7.74896 5.11320 -2.46292 -2.42946 34.73021 -6.60378 14.66217 -0.06010 0.04019 -2.66692 -10.97460 -2.74648 
42.28024 91.00034 -121.73328 3.22907 0.40343 -20.40203 -17.15551 23.63755 11.99001 -0.01163 0.07266 0.01542 -5.55559 1.51835 0.26625 -2.44586 5.58444 4.49867 -115.76336 -42.31151 -105.64467 -46.27255 55.87777 -85.45115 6.36111 7.50676 1.92325 9.92183 17.91034 9.68637 101.42828 -31.58799 90.35429 54.34913 60.48507 93.80177 -5.99576 10.70295 1.48344 5.67798 -26.07617 -3.52495 3.99911 29.70122 -11.86754 0.55415 -0.00390 0.00187 -18.62922 -17.74611 -0.66461 -8.02921 0.15814 -2.61947 -3.47022 43.53535 -3.68157 15.34782 -0.00635 0.02820 -3.64348 -23.73888 -9.72108 
42.10871 89.62611 -123.29222 3.52140 -0.18463 -19.91800 -20.57086 29.11609 15.14533 -0.01109 0.06757 0.01167 -3.83282 -3.67686 -1.72749 -3.76235 12.91925 4.96762 -121.04461 -34.50304 -116.84689 -53.77552 55.26846 -76.11282 6.45184 11.16573 -1.67610 11.54389 13.02933 8.13323 96.65057 -32.94373 83.63019 52.73700 61.77063 97.78288 -6.41282 12.59359 3.05262 5.27434 -28.89151 -0.38540 7.04917 33.05242 -16.57715 0.96268 -0.00378 0.00247 -20.72655 -19.47075 -1.45122 -8.65732 -5.54893 -2.79939 -4.68337 51.66887 -1.22164 15.39609 -0.03471 -0.00658 -3.54496 -20.64251 -7.28243 
41.94726 88.10578 -125.10229 3.92235 -0.76277 -19.34176 -24.52843 34.77414 18.85881 -0.00606 0.06284 0.00864 -1.25206 -8.67038 -2.34486 -2.25884 8.10169 3.18202 -120.20743 -34.21505 -115.40794 -57.84326 54.93832 -71.52248 6.67497 13.23444 -3.32104 13.00278 8.11366 6.88043 93.26067 -33.76916 79.23492 51.35674 62.53119 101.15106 -10.86950 0.02331 -9.96415 4.94860 -32.18233 3.61573 11.26713 36.50004 -22.77332 1.42155 -0.00333 0.00307 -22.91737 -21.22524 -2.36663 -9.66773 -11.62160 -2.97841 -5.27653 60.27015 0.65625 15.03550 0.00474 -0.00514 -4.32904 -25.17986 -9.10246 
41.77699 86.49590 -127.06770 4.41672 -1.29376 -18.70139 -28.63464 40.19231 22.96283 -0.00090 0.06338 0.00652 1.85984 -13.04311 -1.51861 -1.19531 3.67829 1.59624 -119.39883 -33.87697 -114.00554 -59.90854 54.98277 -69.78452 5.21209 1.89162 12.61325 14.18803 3.59658 5.72685 90.81012 -34.29314 76.38059 50.25286 63.02687 103.89422 -9.14135 8.67087 -3.92775 4.70186 -35.26514 7.38979 15.79234 39.24358 -28.98052 1.96955 -0.00262 0.00312 -25.16645 -22.80819 -3.32450 -11.29785 -17.98214 -3.16223 -5.75683 68.06499 1.98084 13.89542 -0.02649 -0.02092 -4.49654 -25.17142 -8.88545 
41.56661 84.85372 -129.04298 4.96133 -1.73739 -18.00194 -31.99807 44.33641 26.44528 0.00906 -0.03330 -0.02290 4.33194 -16.08021 -0.26014 -0.25693 0.88413 0.55588 -115.27305 -35.25968 -108.16019 -55.20111 55.31419 -77.10082 5.97774 9.00603 6.12558 15.05595 0.78347 4.77539 88.98930 -34.65725 74.45118 57.38908 61.05957 96.08090 -7.65868 6.66240 -3.52133 4.50948 -38.15672 10.89895 20.35489 41.22946 -34.97760 2.61242 -0.00255 0.00242 -27.42370 -24.08864 -4.24815 -13.01004 -23.43330 -3.50953 -6.58502 73.01108 1.81165 3.36800 -0.20048 0.04677 4.93570 -24.94334 -8.35545 
